/* XPM */
static char *_35fa63fd0354160bc6a5df907bdae3cb9qh4LlMYCT1rkVX[] = {
/* columns rows colors chars-per-pixel */
"64 64 220 2 ",
"   c #131313",
".  c #151515",
"X  c #161616",
"o  c gray9",
"O  c #181818",
"+  c #191919",
"@  c gray10",
"#  c #1B1B1B",
"$  c gray11",
"%  c #1D1D1D",
"&  c #1E1E1E",
"*  c gray12",
"=  c #202020",
"-  c gray13",
";  c #222222",
":  c #232323",
">  c gray14",
",  c #252525",
"<  c gray15",
"1  c #272727",
"2  c #282828",
"3  c #2A2A2A",
"4  c #313131",
"5  c #323232",
"6  c gray20",
"7  c #343434",
"8  c #353535",
"9  c gray21",
"0  c #373737",
"q  c gray22",
"w  c #393939",
"e  c #3A3A3A",
"r  c gray23",
"t  c #3C3C3C",
"y  c gray24",
"u  c #3E3E3E",
"i  c #3F3F3F",
"p  c gray25",
"a  c #414141",
"s  c gray26",
"d  c #434343",
"f  c #444444",
"g  c gray27",
"h  c #464646",
"j  c gray28",
"k  c #484848",
"l  c #494949",
"z  c gray29",
"x  c #4B4B4B",
"c  c #4C4C4C",
"v  c gray30",
"b  c #4E4E4E",
"n  c gray31",
"m  c #505050",
"M  c #515151",
"N  c gray32",
"B  c #535353",
"V  c gray33",
"C  c #555555",
"Z  c #565656",
"A  c gray34",
"S  c #585858",
"D  c gray35",
"F  c #5A5A5A",
"G  c #5B5B5B",
"H  c gray36",
"J  c #5D5D5D",
"K  c gray37",
"L  c #5F5F5F",
"P  c #606060",
"I  c gray38",
"U  c #626262",
"Y  c gray39",
"T  c #646464",
"R  c #656565",
"E  c gray40",
"W  c #676767",
"Q  c #686868",
"!  c DimGray",
"~  c #6A6A6A",
"^  c gray42",
"/  c #6C6C6C",
"(  c #6D6D6D",
")  c gray43",
"_  c #6F6F6F",
"`  c gray44",
"'  c #717171",
"]  c #727272",
"[  c gray45",
"{  c #747474",
"}  c gray46",
"|  c #767676",
" . c #777777",
".. c gray47",
"X. c #797979",
"o. c gray48",
"O. c #7B7B7B",
"+. c #7C7C7C",
"@. c gray49",
"#. c #7E7E7E",
"$. c gray50",
"%. c #808080",
"&. c #818181",
"*. c gray51",
"=. c #838383",
"-. c #848484",
";. c gray52",
":. c #868686",
">. c gray53",
",. c #888888",
"<. c #898989",
"1. c gray54",
"2. c #8B8B8B",
"3. c gray55",
"4. c #8D8D8D",
"5. c #8E8E8E",
"6. c gray56",
"7. c #909090",
"8. c gray57",
"9. c #929292",
"0. c #939393",
"q. c gray58",
"w. c #959595",
"e. c gray59",
"r. c #979797",
"t. c #989898",
"y. c gray60",
"u. c #9A9A9A",
"i. c #9B9B9B",
"p. c gray61",
"a. c #9D9D9D",
"s. c gray62",
"d. c #9F9F9F",
"f. c #A0A0A0",
"g. c gray63",
"h. c #A2A2A2",
"j. c gray64",
"k. c #A4A4A4",
"l. c #A5A5A5",
"z. c gray65",
"x. c #A7A7A7",
"c. c gray66",
"v. c #A9A9A9",
"b. c #AAAAAA",
"n. c gray67",
"m. c #ACACAC",
"M. c gray68",
"N. c #AEAEAE",
"B. c #AFAFAF",
"V. c gray69",
"C. c #B1B1B1",
"Z. c #B2B2B2",
"A. c gray70",
"S. c #B4B4B4",
"D. c gray71",
"F. c #B6B6B6",
"G. c #B7B7B7",
"H. c gray72",
"J. c #B9B9B9",
"K. c gray73",
"L. c #BBBBBB",
"P. c #BCBCBC",
"I. c gray74",
"U. c gray",
"Y. c #C0C0C0",
"T. c #C1C1C1",
"R. c gray76",
"E. c #C3C3C3",
"W. c gray77",
"Q. c #C5C5C5",
"!. c #C6C6C6",
"~. c gray78",
"^. c #C8C8C8",
"/. c gray79",
"(. c #CACACA",
"). c #CBCBCB",
"_. c gray80",
"`. c #CDCDCD",
"'. c #CECECE",
"]. c gray81",
"[. c #D0D0D0",
"{. c gray82",
"}. c #D2D2D2",
"|. c LightGray",
" X c gray83",
".X c #D5D5D5",
"XX c gray84",
"oX c #D7D7D7",
"OX c #D8D8D8",
"+X c gray85",
"@X c #DADADA",
"#X c gray86",
"$X c gainsboro",
"%X c #DDDDDD",
"&X c gray87",
"*X c #DFDFDF",
"=X c gray88",
"-X c #E1E1E1",
";X c #E2E2E2",
":X c gray89",
">X c #E4E4E4",
",X c gray90",
"<X c #E7E7E7",
"1X c gray91",
"2X c #E9E9E9",
"3X c #EAEAEA",
"4X c gray92",
"5X c #ECECEC",
"6X c gray93",
"7X c #EEEEEE",
"8X c #EFEFEF",
"9X c gray94",
"0X c #F1F1F1",
"qX c gray95",
"wX c #F3F3F3",
"eX c #F4F4F4",
"rX c gray96",
"tX c #F6F6F6",
"yX c gray97",
"uX c #F9F9F9",
/* pixels */
"= t = e * t * a = e = e = t * e = t * t = e = e = e = t * t * e * a # a = 0 = t * e = t * t * e * t # e > e * e * e * e * e * e ",
"Z N G n G n Z x Z N x {.>X#X;X.X;X].;X#X*X{.;X{.*X;X*X* 0 >.c.L..XI.#X]./..XF.!.M.%.G # x f f x f f n x a f Z n G n Z N Z N G n ",
"N Z N n G Z G n Z n x *X.XT.#XZ.{.{.{./.#X{.F..X.XT.9.* a >.T.F.1.M.>.4.9.1.9.>.c.x t = t E w.1.1.9.4.4...^ ^ n x x x n f f f x ",
"9.9.%.w.1.4.%.w.= G x .X/./.Z..XL././.M./.!.L.F..X4.L * t c.{.Z.9.M.1.Z.%.c.4.M.1.Z t = e 9.{.*X*X;X/.>XZ.L.x.4.#.9.9.9.%.4.4.9.",
"{.]..X].L.M.4.%.= N x ;X.Xc.x.u.M.1.c.M.M.x.a.M.c.#.G * t 4.I.1.1.%.M.c.M.M.%.4.[ N e = 0 >.#X2XF.].F..X;X*X;X{.;X.X!.]..X{./.{.",
"M.M.c.c.u.x.#.{ = Z a eXZ.a.Z.c.M.c.u.c.4.c.%.c.c.^ N # e f M.1.Z.c.%.9.a.1.M.) G Z e * t 9..XZ.M.>.M.4.c.Z.u.4.9.c.9.M.%.M.9.u.",
"L.u.a.u.M.4.{ ) = x x 2X{.c.%.c.4.c.9.u.a.a.9.1.c.9.n = a f { 9.#.c.9.x.M.#.c.{ e e a * e #.*XL.4.Z.%.f.#.4.4.M.%.9.w.9.M.u.9.u.",
"L.c.%.L.%.a.L Z * t f qX/.1.u.9.c.c.w.9.#.1.4.M.9.L G * 0 x f 4.M.M.a.4.9.4.M.^ t t e * t 9.;Xc.c.%.u...c.a...4.Z.#.M.M.9...M.a.",
"a.M.c.1.f.[ x f # > x !.F.c.u.M.>.c.9.w.1.u.9.4.c.[ n = * x N x ..e t e t e t e e * * t e { #X;X4.M.#.%.a.{ u.4.M.4.9.[ M.Z.) w.",
"4.9.%.9.[ Z f x = 0 n c.qXM.a.c.4.>.u.1.4.4.%.c.%.Z #.# > e x e e t a 0 e t # a = = = x a x !.!.4.1.u.4.w.u.f.%.>.Z.4.M.c.%.c.4.",
"[ E { [ n x e e * = f 4.{.4.c.1.9...4.w.x.>.M.1.Z.^ Z t * t t t > * = * > # = e * e = a G t {.c.9.c.>.M.4.1.>.{ [ E G I E L ^ L ",
"N L f f x = * = * a a { *XM.#.a...#.{ M.u.4.>.#.1.) E 0 > e n t x f [ ..4.M.u.M.M.a.[ e N x I.1.^ [ E L ^ G x N N f x f n n a n ",
"= * > * * e * e = 0 N f ;X!.9.1.4.w.f.%.u.c.{ w.Z.9.n t # e a ..Z.c.{.;X8X{.{.{.a.E G # Z x 4.^ E E Z x f f a t t e t * t # t * ",
"* a # e * * a * t a N x f..X4.Z.>...4.c.1.#.f.1.%.[ n t * = 0 M.M.;X{.L.#.F.>.M.%.[ t * e t t t e e e e t t e * = * 3 # = = * * ",
"0 e t e t a 5 a t t x x 9.!.c.%.c.a.%.#.9.#.1.M.4.N Z t * t e c.2XM.Z.4.9.4.>.4.4.Z a # t # # t = * t = # a = a t t 0 e t t 0 e ",
"Z n e e e t t e # t Z f { !.%.M.a.4.x.a.x.%.M.%.c.x { x * * n c.qXc.9.%.M.1.c.>.M.N 0 = e x L n Z L o n n f f x x x x x f a x t ",
"u.a.4.u.9.u.4.a.a.# * Z x T.L.a.4.#.a.a.{ 4.4.9.w.^ G Z * = n c.qX%.4.c.M.#.M.4.9.N 0 = e [ x.>X{.Z f N ..a.u.9.a.u.u.4.u.a.u.u.",
".XT.#X.XT..XF.M.[ a * G f 9.L.1.M.9.#.1.w.%.c.4.I w.^ x = = n c.].f.M.9.%.M.4.Z.>.N t = e M..XT.M.= a #./.{.*X*X*X{.*X#X;X.X>X].",
"M.u.1.c.w.c.M.E { e * N x ) u.M.%.Z.c.#.c.[ 9.^ N { n n # # x M./.c.9.^ { [ ) N N Z e * e {./.c.#.* n a.{.{.F.F.M.F.I.I.c.Z.L.L.",
"c.9.u.4.c.#.4.[ { e = f Z x a.4.{ ) ) [ G N #.n { Z f * = 3 e u.4.{ 9.^ 0 e e e e t e = E *XM.4.9.= a a.>Xx.M.f.c.9.c.1.u.>.u.u.",
"M.4.9.M.>.M.M.E Z a # f Z f E Z G Z G x a x 0 * * = * * > # * 9.[ e t 0 = > * = = * > # L *XM.c.%.= x a.{.Z.9.u.#.u.9.u.[ %.9.%.",
"c.1.F.1.F.#.4.{ n 0 * x n x # t # t * = * = = = = * * = # > t e N e = = * = # t # = e * 9.;Xx.M.1.= x 1.].{ M.u.Z.9.c.4.a.#.f.a.",
"4.F.) { 4.4.Z.E G e > e Z N x e = = * = * * = # n f n N x x a 4.9.4.M.M.1.9.9.{ L * a E F.>Xc.#.#.= n %./.c.%.a.4.w.>.u.%...1.9.",
"4.%.%.%.4.c.>.^ f t * 0 >.*X>X#X{.!.M.c.4.I e x ^ ..M.x.L.!./.*X*X;X{.#X>X#X!.a.E * t %.#X/.a.M.{ * x >.Z.M.u.4.M.>.c.4.#.#.4.4.",
"4.4.M.c.%.9.4.L x t * e .X/.c.9.u.w.F.1.u.t n n #.{.8X;X*X!.L.F./.L.I.L.!.L.!.^ Z = e 4.*Xc.f.4.) > x ) !.>.M.9.9.a.4.%.F.1.c.4.",
"u.c.%.9.M.#.{ Z t 5 = e #Xa.9.u.M.c.4.a.Z.* Z x a.;X!.4.c.>.c.u.%.c.f.c.u.4.%.^ f * a 9.eXx.#.Z.N * f f 4.{ L Z n Z ^ E ) ..9.%.",
") L E Z ) Z a t e t = e .XZ.c.c.#.M.1.Z.Z > x f a.8XZ.a.c.9.{ M.c.9.>.4.c.>.M.Z x = e #.8XZ.c.4.G > N = a e f f x x f f a Z Z N ",
"x N x t e e = * = = # a *X#.c.4.Z.c.9.#.G * x x u.8X#.Z.1.u.M.>.4...9.c.4.4.9.x x * t 9.2X%.M.4.N * N t # # 3 * * # = > # t e f ",
"= * * # * = * e # x n f *XZ.a.>.c.9.M...I * t x u.eX1.4.M.>.9.#.9.{ 9.>.4.M.9.n n * e >.2XF.c.%.N = G e t a e e t a # 0 * * > = ",
"f E ^ [ 4.a.4.%.9.9.a > ;XM.) a.4.c.>.>.E t * f 9.8Xx.9.>.1.#.9.#.9.c.{ w.%.c.Z x # t 4.qX1.M.c.N = Z x a f n N n Z G N G 0 t e ",
"^ 9.F.;X].;X.X{.!.c...# #Xc.c.%...4.c.%.E t # x 9.#XT.w.9.M.4.c.[ ..w...9.c.%.Z e = t 4.{.9.>.Z.n * x x.;X{.F.9.L G f f x x x n ",
"E c..X!./.F.c.M.u.M.e > qX4.a.c.#.9.c.u.) x * n ..{.!.c.%.4.{ 4.....M.1.M.%.>.n t * e 1.>Xx.w.4.Z # n ;X%.1.I.*X;X].;X#X>X4.e Z ",
"E ;XZ.Z.c.>.Z.4.Z.#.[ * eXu.c.9.c.M.%.M.E n = t n /.*XM.M.u.9.c.%.c...%.1.M.) Z e * a 9.{.4.c.4.N * n ;X4.#.M.c.>.1.M.4.%.1.0 N ",
"E ].L.u.%.c.4.M.#.Z.{ # 8Xf.>.u.M.1.Z...[ n = * L x.qXc.c.a.4.9.#.4.#.{ F.#.{ f 0 > a 4.{.M.M.>.Z * a ;XZ.c.%.9.M.c.%.c.9.G t a ",
"^ *XZ.>.Z.4.c.M.{ c.N > *Xc.M.c.9.4.4.M.^ n # e n 4.qXF.c.4.c.>.9.u.%.c.1.M.L n * a t 4..Xu.1.M.N = n T.M.9.c.M.%.4.M.1.Z.L e x ",
"^ ;Xc.M.4.4.a.u.Z.#.Z = *XF...u...M.Z.u.L Z = = n ^ {.L.M.4...a.>.1.f.9.1.4.L e * * f 4..X1.Z.n Z * n /.x.u.x.4.c.>.9.M.w.G e f ",
"I {.L.1.M.c.9.M.%.Z.N # /.>X#.a.M.1.4.4.L I # * n N Z.;Xx.1.c.4.x.w.c.%.9.) N e * e n #.c.#.n t t e t c.c.w.M.f.4.M.4.%.Z.Z 5 e ",
"^ ;XL.c.u.4.M.1.Z.>.n > M.>X..M.%.9.w.M.E Z * = 0 Z 4.L.c.4...^ I Z a n t 0 e t = 0 t Z 0 a e 0 t x * ..x f N N Z Z Z Z Z Z a t ",
"^ *XM.4.Z.c...Z.{ M.n > u.{.a.{ c.M.>.4.^ G # = e Z f 9.9.I G f t # * # * > * * = a x n f x n Z N N I   = = * = * > * * * o * t ",
"^ {.L.4.#.a.Z.4.M.>.Z = #.*Xc.a.M.#.4.M.E N = * = n f t # e = * * = t * e # = e * e x N L f f x x x t N f f e e t e e t t a e e ",
"E *XF.c.Z.#.a.c.4.Z.n > N qX4.a.4.4.c.>.^ N # = t a x f t e t t e x a x a x N f x x f G n #...#.#.....{ %.{ #.....#.#.....{ e N ",
") *Xx.9.1.Z.>.M.w.E G = f qXc.4.>.[ 9.M.E Z > * * a ^ #.....#.#.%.#.%...#.#...#.9.9.1.u.M.L.c.!.F./.F.].F.F./.I./.Z.!.F./.%.0 N ",
"L /.F.M.M.1.M.4.c.n * * N 8Xu.9.M.4.1.1.^ Z e = * e ..!.L.!.L.T.F.T.!.L.T.L.!.F./.Z..X*X#XqXeXqX8XqXqX2XqXeX8X2X{.*X{..X4.^ # n ",
"^ {.I.1.Z.9.c.M.>.Z = 0 a qX4.c.#.a.>.M.I N e = = = #.!.T.eX8XqX8XeX*X;XqX8X#XuX8XqX8XqX*X;X{.].F.F.Z.!.F.c.M.].L.F./.Z.#.Z = N ",
"E F.F.M.1.x.%.9.4.n * t f *Xc.M.%.M.4.1.I G e * * * #./.!.M.].Z.!.F.!.x.I.!.Z.Z./.F.F.M.Z.9.f.9.4.M.4.M.>.4.u.c.%.x.9.M.^ Z e t ",
"n /.%.4.Z.#...^ [ G * t f #X>.1.M...F.4.^ G t * * 3 E Z.;XL.4.9.>.1.9.9.c.%.c.Z.9.1.a.x.x.Z.1...a.#.Z.M.u.#.c.1.M.M.u.4.^ Z # e ",
"f L.x.M.a.9.Z N N * = a x Z.Z.%.9.Z.1.%.{ n e * * # f ].;XL.1.9.4.Z.1.a.4.a.Z.#.4.a.Z.c.%.u.9.f.4.9...#.a.f.4.M.%.c.9.Z.E Z f e ",
"x ..#...Z Z G N Z * t e t u.u.M.%.9.4.) ^ N t * = * > Z.#X{.Z.x.>.9.4.9...4.>.M.9.a.#.Z.a...>.1.M.#.9.M.4...[ 9.#.a.4.4.{ N # e ",
"x t * * * G Z N G # t a f %.E I ^ ^ L ^ N Z t * = # t c.{.{.4.>.M.4.c.>.4.c.9.#...a.a.%.c.4.c.4.9.Z.#.4.#.1.4.>.M.4.[ %.) Z = 0 ",
"Z Z Z x t o * > # t a 0 t e e e e e e 0 e a 0 = * = # 9..XL.c.1.4.c.>.M...w.%.u...f.4.a...M.>.4.{ 4.w.9.%.F.9...4.9.>.#.) N = t ",
"f x f x x n x e * = e x t e = * * = = * = * = * * * e %.u.^ [ { [ ) { ^ Z.4.x.M.>.4.{ %.9.4...4.9.M.%.M.4.>.M.%.4.9.4.u.^ G * t ",
"x ..M.Z.x.c.4.9.^ f x L 0 t * = t * * a # # a * t = e Z a e a * 0 = a # G [ ^ ..9...#.{ #...#...#...#...#...{ %.#.#.{ %.^ x * a ",
"f Z./.].*X{.;X*XF.c.M.1.^ I Z x 0 t e t t a 5 t t e t Z n f e e e t 0 e = n N n L x L Z Z n Z Z N N Z Z Z n Z Z n G Z n Z * t 0 ",
"x c.].Z.M.9.F.{.;X*X*XI.x.M.c.M.M.Z.c.u.1.4.>.{ ..) ^ ^ x G f f x t x t a * a * e = e * t > t * t * * # = = * * = * * * # * t t ",
"x x.;Xx.c.c.I.M.4.Z.M.*X*X*X.X*X].;X].*X;X;X*X!..XT.M.M.c.c.M.M.>.x Z a t 0 5 t e t a 0 e * # t * e > e = t * t * t * a e a x n ",
"f M.*XM.%.c.{ ..c.u.w...M.#.M.9.Z.1.M.Z.#.c.4.M.M.M./.{.*X{..XF.>.e x n x f n e t t # t t e a e e e e e 0 t e e e 0 a 0 t f n N ",
"f M.!.c.c.x.9.c.9.4.9.u.c.%.9.M...) 9.Z...4.%.9.c.%.Z.1.c.M.x.%.E = e n x c..X*Xa...x x x Z N N f x a f x f a x f a x f n G N N ",
"f c./.c.>.M.#...w.M.#.Z.M.a.%.{ Z...4.{ a.>.M.9.M.9.c.>.c.M.u.I Z * t f n ;Xx.c.*X*X*X{.F.Z N n Z.;X*X.X;X;X*X{..X!.x.u.#.x x N ",
"x x.#.) G ^ G E E I ^ L E I ^ ) L E I ^ G E ^ L E L E L ^ L I L Z e > 0 x {.L.M.L.x.I.F.I.G G ..;Xu.c.c.1.M.#.Z.u.c.9.c.].u.= N ",
"x w.^ e t e e a e e t e e t t 0 e e t e t 0 0 a e t 0 e t t e 0 0 t * * n F.M.Z.F.a.L u.%.^ f L.M.>.M.%.c.c.M.%.c.9.c.%.F.n > G ",
"x e # * * > > # * = = * = # * = = * * # = = = # * > * > # * > = * = * = N 0 n t n E L E E I a ;Xu.x.u.M.M.w.u.M.w.f.x.9.1.n * Z ",
"Z f a t e * e * # a o = e = > e = e = > e = # t = # e * o a # # a # t # t n Z 0 a = * = # 3 t N Z Z N n Z n L x Z Z N G n L # Z ",
"N L x Z f x f n n f n x e 0 e t t t 0 0 t 0 a e t e e e e t e t 5 t t a e N G N N e t a e 0 t N N o = > * * = = = # * # = # # G ",
"t 0 t e t 0 t t e 0 t e t t t e t 0 f e t e t e e t t e t e e e t 0 t 0 e t e e e t 0 e t t 0 t t t t 0 t e e e e t e t e t t e "
};
