/* XPM */
static char *wolf_yellow_stone1721451664[] = {
/* columns rows colors chars-per-pixel */
"64 64 245 2 ",
"   c #1B1C0C",
".  c #1C1D14",
"X  c #1D1D1C",
"o  c #181917",
"O  c #211D1B",
"+  c #231D14",
"@  c #231D0A",
"#  c #1E211C",
"$  c #1D2115",
"%  c #1F2209",
"&  c #242301",
"*  c #22230D",
"=  c #2A2A09",
"-  c #383507",
";  c #232314",
":  c #23221C",
">  c #2B291B",
",  c #322D18",
"<  c #393819",
"1  c #31300F",
"2  c #1D1C22",
"3  c #1D1C2C",
"4  c #231E23",
"5  c #221C2A",
"6  c #1F2122",
"7  c #242323",
"8  c #2C2C24",
"9  c #2C2C2C",
"0  c #272527",
"q  c #302D2B",
"w  c #342C24",
"e  c #2D302B",
"r  c #343323",
"t  c #3B3A23",
"y  c #34352C",
"u  c #3A362C",
"i  c #3C3B2C",
"p  c #363828",
"a  c #2D2C31",
"s  c #2B2632",
"d  c #312B34",
"f  c #353433",
"g  c #393634",
"h  c #363934",
"j  c #3B3A34",
"k  c #36353A",
"l  c #39363A",
"z  c #36393B",
"x  c #3B3A3B",
"c  c #413C17",
"v  c #413D0D",
"b  c #413D27",
"n  c #413C36",
"m  c #3E4133",
"M  c #3D4222",
"N  c #474519",
"B  c #4B492A",
"V  c #514C2B",
"C  c #555328",
"Z  c #44453B",
"A  c #4B4A3C",
"S  c #484837",
"D  c #514D37",
"F  c #4E523A",
"G  c #575539",
"H  c #4E5128",
"J  c #6A6A2A",
"K  c #6A6739",
"L  c #726D3A",
"P  c #7A7839",
"I  c #79792F",
"U  c #646235",
"Y  c #3D3C42",
"T  c #393643",
"R  c #423C47",
"E  c #3E4248",
"W  c #454544",
"Q  c #4A4644",
"!  c #4B4B44",
"~  c #45444A",
"^  c #4C4B4B",
"/  c #484849",
"(  c #524D47",
")  c #4E5149",
"_  c #545345",
"`  c #54544C",
"'  c #595849",
"]  c #4B4952",
"[  c #514F54",
"{  c #4E5253",
"}  c #535353",
"|  c #55545A",
" . c #595756",
".. c #635E50",
"X. c #64644C",
"o. c #6A6746",
"O. c #726D48",
"+. c #797847",
"@. c #646353",
"#. c #64645C",
"$. c #6A6858",
"%. c #716E56",
"&. c #7C7B54",
"*. c #7C7C5C",
"=. c #767458",
"-. c #6F7257",
";. c #5C5B64",
":. c #646364",
">. c #6C6C64",
",. c #6C6C6B",
"<. c #67656A",
"1. c #736F68",
"2. c #6E7162",
"3. c #737265",
"4. c #7D7C63",
"5. c #7D7B6B",
"6. c #76746A",
"7. c #6A6874",
"8. c #727272",
"9. c #7C7C74",
"0. c #7C7B7C",
"q. c #777778",
"w. c #726E74",
"e. c #5F6157",
"r. c #817F38",
"t. c #827E48",
"y. c #827D57",
"u. c #827C64",
"i. c #817C6A",
"p. c #827E77",
"a. c #7E8254",
"s. c #7E8173",
"d. c #7F826C",
"f. c #84823A",
"g. c #959638",
"h. c #848249",
"j. c #98974B",
"k. c #83825B",
"l. c #878455",
"z. c #979757",
"x. c #918E58",
"c. c #A19D5C",
"v. c #ABA958",
"b. c #AFAC4D",
"n. c #888669",
"m. c #938D68",
"M. c #949463",
"N. c #94936C",
"B. c #999968",
"V. c #8B8C74",
"C. c #8C8B7C",
"Z. c #868577",
"A. c #928D74",
"S. c #928D7C",
"D. c #988D79",
"F. c #8E927A",
"G. c #9C9B74",
"H. c #94927C",
"J. c #9D9A7C",
"K. c #969575",
"L. c #8F926B",
"P. c #A19D76",
"I. c #A59E67",
"U. c #A9A668",
"Y. c #A9A574",
"T. c #A8A778",
"R. c #B3AC79",
"E. c #BAB97A",
"W. c #B5B26B",
"Q. c #C3BD7A",
"!. c #C3BF62",
"~. c #C2BC5E",
"^. c #BFC279",
"/. c #C2C27A",
"(. c #CAC86E",
"). c #7E7C82",
"_. c #817F80",
"`. c #8C8B83",
"'. c #8C8C8B",
"]. c #888786",
"[. c #918D83",
"{. c #928D89",
"}. c #8D9188",
"|. c #949383",
" X c #9C9B84",
".X c #94938A",
"XX c #9C9A8B",
"oX c #9A9687",
"OX c #8D8C92",
"+X c #918E92",
"@X c #9B9B93",
"#X c #979697",
"$X c #8D9191",
"%X c #A29B88",
"&X c #A29D97",
"*X c #9EA28B",
"=X c #A9A887",
"-X c #B2AD89",
";X c #BAB889",
":X c #A4A493",
">X c #ACAB94",
",X c #ACAB9B",
"<X c #A8A69A",
"1X c #B3AD99",
"2X c #B8B698",
"3X c #ADB291",
"4X c #9B94A2",
"5X c #ABABA4",
"6X c #ABAAAC",
"7X c #A7A6A7",
"8X c #B1ADA5",
"9X c #B7B6A8",
"0X c #B7B5B6",
"qX c #AEAFAD",
"wX c #A79DA5",
"eX c #C2BD86",
"rX c #C2BD98",
"tX c #C3BFAB",
"yX c #BDC28B",
"uX c #BEC3AB",
"iX c #C3C38A",
"pX c #C6C699",
"aX c #D3D294",
"sX c #C6C5A7",
"dX c #D6D4A7",
"fX c #C5C5B8",
"gX c #D5D5BB",
"hX c #D1CEAF",
"jX c #E7E6B2",
"kX c #E7DABA",
"lX c #BEBCC2",
"zX c #C1BDC4",
"xX c #C8C6C4",
"cX c #D9D7C7",
"vX c #D9DAD6",
"bX c #D0CCCC",
"nX c #E2DDD0",
"mX c #DDE0DE",
"MX c #E6E3C8",
"NX c #E4E4DA",
"BX c #F4F2D9",
"VX c #F0ECD6",
"CX c #E9EAE7",
"ZX c #F1F4EA",
"AX c #DDDBE7",
/* pixels */
"a a a a a a a a 9 8 r = - = - - - 1 , , w q , 1 - - , , 8 8 f 7 r > w , - - - , q 9 f 9 s s q w > 8 8 9 k s 8 w q d d q w , 8 8 ",
"}  .{ | | | | } | ^ S MX;XyXE.Q.yXkXMXcXnXcXnX=XP.P.nX+ n ].7XmXvXMXMXgXeXeXeX=.`.OX[ X ^ A F H F F S ( Q Q ' _ ` [ ..( ! '  .( ",
") ' ' ` ` (  .| |  .Z cXaXU.b.v.U.B.;X;X;XgXsXpX;XeXA.+ x $XuXqXV.uX+.pXx.j.x.o._  .y $ t +.j.c.z.M.n.3.5.=.K H D A V B ( Q ~ [ ",
"|.C.C.F.C.[.'.OX2 | ! MXdXU.b.W.K G.E.yXB.rXsXpXh.Y.X.O k 6XmX,XF.&.2Xl.J r.L G Z.^ i * < z.W.(.z.K A.2XpX;XiXyX..O.eX;XA.+X_.4X",
"gX5X=X9X9X,X].+X5 [ Q nXgXz.j.r.K %XeXz.T.=X*XL.x.M._ 7 l +XuXF.C.A.1X>XL y.o.G 1. .z * v c.(.b.J K y.-XjXE.aXaXB X.iXyXy.i.bXbX",
",X,X:X&XG 6.0.,.4 | ^ cXsXM.r.J =.i.G.R.G.F.F.2.F.a._ 6 h ! 5X1XC.1XS.A.u.D G 1.{ | y * v j.aXJ K K.rXdX;Xt.j.j.C o.M.+.o.S [.&X",
"0X.X#.' [.C.{.6.4 / / vXcXD.K O.i.,X*XJ.*XF.s.@X2.}.^ 9 g ! 5.|.i.:X`.,X<X1.$.1.h k x + c y.x.O.X.i.-X;XsXl.J M.B =.%.B B o.%Xi.",
"0X0X9.{.5XC.6.[ 7 x ~ vXcXD.u.u. X>XH.gXd.s.#X7X}.}.| 2 f A 3.`.,X[.,X]..X'.5X1.x x h r r y.K o.oXC.y.pX+.y.K K V 1.6.|.$.d.*.o.",
"4X6X6Xw.,..Xm ! 6 0 E mXuX7X$Xs.J.;XJ. XV.@X'.'.7XOX| 0 o A ` 6.6._ } g x y j y h m 2 h p i.X.D.i.>X-X*.V.=Xa.F 1.`.#X$X`.5X5.@.",
"OXOX].OX8.} / ^ # e E mXZX6Xs.@Xl.iXT.=.F.`.].6XOXOX| a : ! W z r t g x k h j y : . x h g p.9X9XA.C.Z.XXd.d.XX@.1.@X].#XOX].qX|.",
",.w.,.q.} / h f o e W vXmX$X).@XG.yXx.-.,X}.6X'.6XOX| 0 7 j ~ h , < : 2 2 s O 8 : x h g g Z.0X9.|.B }.5XgX4.F.2..X<.wX7.7.$X;.:.",
") | W / / 7 0 7 # e ) 7XvX6X#X5.yXU.N.=.}.$X'.0.}.<.<.x X g ] ! B N 3.7X6X7X7XnXNX@.i p h >.0X`.5.$.e.9.}.p ' _ #.W ~ E ] ~ ^ ~ ",
"# # 7 # X 9 0 8 9 z { $XmXvX].s.m.M.=.S.$X7X0.$X}.|.{ Y # g } $.R.jXMXNXNXNXbXgXgXpXo.b r } '.8.#.:.} ! Z Z p h x z Y d a 9 f 9 ",
"e 8 e 7 9 9 e 9 6 m | w.7XxX}.,XL.m.F.<X].#X#X`.X.e.` x X 7 k >XjX^.L.K.V.=XD.=XJ.O.V & n x x g x k j x u j y 8 8 2 2 4 # 7 X 7 ",
"k n h x j j h Y E z | E OXvX7XC.>XJ.$.@X+X0.`.,X4.G  .h # y ^ >X(.I f.R.M.dXaXx.B.C O.b u s 9 q 9 0 u 8 e 0 a x z x k l l n g g ",
"` ! j p p j h e z T | ] <.xXC.,XJ.tX|.1.5X].,XH.X.' >./ : 9 Z -XaXI h.B.E.aXy.m.&.G G c D A _ _ } | . S ! S _ Q Q Z A A Q Z A Q ",
"G.J.%X XJ.J. XXX@Xa 2 | / fXtXu.D.[.9.<X>.{.`.S.1.$.| } X ; V pXdXt.k.T.iXaX=.S.X.X., b V aXU.U.$.{ ~ ` u.P.I.P.%X%XJ.J.G.K. X%X",
"aXyXI.kXjX;XG.%.1.x 2 | / {.tX..$.&X$.`.1.8.5X{.1.'.q.~ 7 $ B dXu.D.n.L.B.K $.6X{._ n t v W.U.h.X.9 / Z.rXeXeXeXjX%X3X-XE.^.pXkX",
"Q.W.t.U.v.U.K G %.x X | ] w.&X$.#.S.`.>.+X[ +Xw. .,.{ ] 6 X D u.].p.V.gXo.%.:.{ ` } f % - x.y.G $.; !  XeX/.eX+.aXM.k.T.^.j.h.O.",
"U.P Q.U.j.r.J G 6.y 0 ] [ Q #X&X1.|.e.w.w.w.w.| 8.^ { 9 7 6 8 5X+X,.S.2.G p z h h j m ; X.H.a.-._   ! |.iXE.y.Y.m.B.u.K.yXj.t.P ",
"l.R.h.U.c.J o._ { h 6 m  .Q #.( _ r m f T T T s $ : $ : o 7 8 {.,.j p < * * $ 8 : X X # #.C.*.V.' 7 [ oX=Xy.V. XK.u.i.=XiXz.+.I.",
"-Xm.-XR.U C D |.{ T 6 { ) A w r , 8 0 X s 3 X 7 % % % % @ : 8 u ' m * * & & = 1 > y 9 e ].5XV.3X( 4 Q {.1X%X1XXX:Xu.8Xu.-XB.o.+.",
"m.1X*.d.G 3.|.,.{ E # M G C V c $ $ . 7 X 4 4 . F H H H F B A .X|.J.M.z.j.j.j.h.G > f <.lXmX5X9X>.4 R {.`.:XcXH.A.2XoX%X>Xd.d.|.",
"m.rXH.d.|.Z.`.<.] z o M x.yXeXP. X`.0X0XqX<.j ! X.L.;X;X;X=XcXNXVXVX;XyX^.!.v.j.y.; y Z.mX0XNX5X1.@ ( i.@X<XF.L.=XJ.gX%X9.8X.X,X",
"x.N.4.5X].[.`.:.~ l @ < ^.U.v.c.u.i.p.0.0.x } A H.2XT.L G.-X>XoX<X%XG.t.z.r.j.f.L * n [.nX,X5XfXhX& B hX*X*X=XB.aXaXy.1X{.&X7X&X",
"T.&.[.Z.{..X>.} k n @ N U.j.h.K o.$...#.$.# ` A  XBXB.T.x.P.pX=XJ.J.=.;Xt.t.z.L V * n ].hXV.`.>XM.& F V.F -.U dXU.a.O.S i.<.` >.",
"o.@.$.<.<.[ Q l Y k > < T.+.K o.G.u.P.X.X.$ ! W #XBXdXR.c.eX&.G.;XyX-XJ.t.-Xy.O.G ; h }.&X3.$X<XL & S ) m m D V N C G D Q ' ' ` ",
"_ Q Q l Y k 7 4 0 2 q w T.k.X. XP.+.&.o.X.* ) W #XVXeXU.Q.z.k.G.yX+.G.3XP.B.p...y * M F.2..X<XvXH & ) 9 9 # + @ & & @ > O u y S ",
"6 7 6 0 X X d s s ~ / ! ZXX.@X5Xu.N.&.o.X.  h ) %XVXR.I.Q.L k.=XG.2X%X=.P.l.i.$.t * c uXBX<XnX8X .@ / R l l n , , , @ + : : : > ",
"~ <.e.-.|..X{.+XOXOXE X CX@X$X5X4.m.o.n.X.m # m oXVXR.U.j.J y.oX5.%X<XP.U.t.u.( i & - T.VXfXuX:X` : ^ f u B < c v c B , b n y g ",
"<.S.2XR.P.m.1X<X7X7X<.7 CX<XvX}.@.5XC.9.@.m $ ) @XVXR.Q.x.K u.&X6XwXoX1XU.r.K._ c & o.N.MX=X-XT.' # S X.M.z.j.v.v.P +.C D n ^ | ",
"$.2XU.U.h.o.-X>X5X<XQ # CX5X$XqX9.`.Z.C.$.h # E p. X;Xz.J t.u.wX4X4Xp.P.U.t.o.G b & M N.cXkXY.z._ : S =.B.J g.g.g.W.U.T.y.@Xk | ",
"K Y.z.h.K L.T.T.T.=.#.# CXvX7X#X:Xd.}.<X$.j O n {  XN.K h.l.J..X6Xp.&Xy.Y.+.y.B p % M L.MX=XU.J ' 4 Q oX&.L j.j.f.f.L o.X.p.l | ",
"K T.N.O.=.3Xa.U.+.=.$.: mX#XOX@X3XK.s.5.@.p O d { ,XBXT.;X;Xm.`._.).i.k.Y.l.o.D r $ X.F.hXpXW.C ' + / vX>X=Xz.J L +.C o.3.$.z ~ ",
"$.%.H.1XV.%.M.T.L =.' . AX6X6X5XJ.-X1Xp.X.i 8 4  .`.ZXsXiXP O.*.+X@XS.-Xm.y...S > $ *Xs.cX3Xh.J < # Q bX<XL.M.K L.d.J.$.XX#.k ~ ",
"7.6X7X`.<X3XT.M.K -._ 7 AXlX0..X2X=X4.[.$.t + : Z 8.xXsXl.K o.5.p.8XoX=XA.X.$.j 6 6 m $XbXn.K C M   ! fX,X3XL.K s.`..X@X5X` z ] ",
"7.AX4X6X|.n.+.L o.-.` 7 zXAX{.XX=Xu.[.7X$.t i ; / | 0XvXX.o.Z.C.8X`.i...$.#.p.f X z ] q.:Xn.K N F Z W 6X&XD.G.u.,.4X0.,.XX` m z ",
";.AXwX6XC.J.U o.-.=.` 7 0XAX9.,XA.[.].{.2.r M ; h { $XxX X5.5.6.>.1.$.#.6.,.( g 0 z E | h i D D < y W w.` Q G ' | { | { } ` f h ",
">.vXqX|.*Xa.M.O.m.&X' 4 4XvX5X9.5X7X_._.e.' M $ m } ~ }.`.-.1.} ' A + n Q  .( + $ h ] | / Q g i p A _ O O : @ : 6 3 7 9 X $ 7 g ",
"@.MX2X=XL.G.M.T.K.=.( 4 ).vX@X@X,X].<.4Xs.' < % 9 E ! y 1 , y + & , r 7 n f u u h f ] ~ / W D S V V B D A D r t g x x y u u g x ",
"o.jXY.Y.P.M.U.M.*.=.` O } ZX7X7XS.S.'.7Xs.) F * 8 ! B H - - N v - C V D  .[ #.<.$.>.w.0.q.p.*.y.r.a.a.a.a.a.a.a.a.n.a.4.4.Z.h  .",
"o.T.I.l.-XK.B.K o.X.' 4 ~ CX4X].|.d.`.q.s.{ '   q i o.z.z.j.z.j.j.z.+.u.i.].&X+X5X,X<X5X8XtX;XeX^.!.v.r.pXyXsXT.iXyXU.+.sXp.k [ ",
"K Y.y.t.D.%XK.X.X.@.8 9 ( CX6XOX5.@.5X.X:.} ( ; + b L Q.(.~.!.!.!.!./.z.>XxX7XxX|.fX<XfX9XsXE.U.f.f.a.E.yXgXT.pXiXU.W.U.=.$.s ] ",
"K T.l.y.8X[.V.S.[.` O 0 Q ZXOX7X$.$.'.'.<. .( + + w K Q.b.b.b.b.b.b.v.P 3XuX7X7XfX9XS..X1X%XY.r.W.j.E.yXT.d.A.rXT.M.W.+.y.` 9 ] ",
"o.=X&.A.p.qX_.8X$X[ 7 f ( vX7X6X5X7XOX6X<.| n + : b = Y.W.j.j.g.g.g.g.f.K F.fX>X>XV.XX5X8X{.sXP.R.Q.R.T.u.V. X>X=.O.T.+.=.' , h ",
"V =.4.S.0X+XqX{.<.| 7 y / bX'.'.7X+X].OX<.| n + ; y < N.M.j.j.I g.g.r.J o.-.:XuX3XV.p.+XtX%XoX-XrXy.a.&.%X=X>X%XD.V.=XO.=._ , h ",
"A `.C.`.OXp.:.[ { 6 9 y ( 0X6X+X{.7X+Xq.;.| n + : f 8 tXMXsXM.J J I J =.2..X,XuXV.0X|.%X%XrX2XP.C.5.%.N.m.dXT.2X>XC.:X6.2.) e x ",
"W 0.p.,.<.[ }  . .# 8 h ~ 4X4X7X].OX'.8.<.| g + # l q 0XnXgXa.+.+.O.O.k. X`.|.,X0X<X`.9XrX=Xm.A.5X`.H.J.;X=X+.-X XXX2.2.3.` 0 k ",
"^ g X  .| | | ` ` $ m m ] ).;.<.:.:.:.:.{ } h # # h 9 7XmXbX,.d.D.u.Q.I.l.2XZ.$X0X+XwXrX2Xm.Y.=X:X,XoX9X=X4. X,X>XoX@X:X2.' 6 Y ",
"}  .' : > + 7 q $ 8 M Z h z z Y l R f h y x m # 7 9 a $XbX0X$XqX.XrXI.U.L m.qXOXqX&XD.m.hXP.K T.:XfX.X1XH. X5XXXV.D.9Xs.2.` 7 T ",
"Q ! V V v < , w > , m A j g # 7 4 + 7 O ; . # 7 6 2 a OX#X8.8.7.w.1.u.o.K A.9X,.s.V.1XdX=Xo.3XV.5X#X`..X9X9.].|.9X%XC.XX>.` 6 T ",
"( i.T.E.Q.Q.G.i.$.A m _ b i > r w w w , < > > > a a k { / m e e 0 q , , ..1.,.q.Z.>X1XU o.u.d.2.#.0.$X].{.9.p.8XZ.@.9.9.:.} 0 k ",
"S -XE.aX(.(.eXeX=XS.1XV.=.o.G V < c c v - N < M g x W  .Z Z e m x x j n 7 ( | [ { _ _ X._ ' `  . .` ` { } | | } [  . .}  .O w g ",
"D -XyXaXv.j.x.K.P.>XsX*XgXhX-XeX;XY.Y.Y.U.U.&.=.Z.8.:.e.' _ ) Z Q ^ n f l 8 g q e e $   : y 8 9 8 8 # 0 2 2 7 5 4 4 O O O f g Q ",
"n ,XuXK.T.G.sXsX9XtX0XxX5X`.K.B.z.M.z.j.c.z.N.d.C.].fX,X=X3X5X7X`.)  .! h g w n j x z h x 8 y 8 8 e 9 9 a d d 9 w q s s R d [ Z ",
"! 5XuXfX|.sX2X-X>XXXuX5XqXuX3X=XM.x.M.x.x.a.a.a.`.@XtXMXsXhX}.uX5.u W  .A D B b b g z h f j y i M < < i p i n u n u Y T ] ~ Q } ",
"/ 6XqXcXfX8XhXpXT.&.9X9XbX7XgXuXuXyXH.H.N.V.F.}.'.qX,XV.sX=..X9.:.6 z ' S a.T.G.=XX.S Z ! ) _ G J U.z.h.K o.V D B A W ] | [ } { ",
"~ 6XzXzX8XD.t.=Xt.V 9X5XuXAX*X,X:XcXfXfX:XfX&XbX6Xs.<XgX-XD.{.<.^ 6 x W H T.r.h.l.K NXvXqX_  .D.iXE.Q.z.r.iX-X=XdX2X9X#X0./ Q  .",
"~ qX'.,...$.o.*.H =.Z.,.;.w.s.,.#.#.;.8.s.].qX].).:.$.@.-.@. .|  .Y 2 f S K a.P K o.uXqXuX;.| [.k.y.y.l.t.;X=Xm.;XM.-.7XmX@Xo | ",
"] OX<.Q g g b u p i y Y Y T Y z j x z z z Y T T T T g p p j W T l l 0 9 m sXh.K o. X .#X$X7.~ +XD.1XA.-X;X;X-X-XU.+.-.C.6X .6 { ",
"] k X O 0 4 + O : 7 0 5 3 5 5 O O : # 7 0 # 6 2 6 2 6 # X 7 2 5 7 X 7 9 ) p t G ' $.:.<.<.7.R 7.:.&X-XrX;XK.i.>X&.=.=.|.].{ # ' ",
"| ] n g g q d d d s a d s k s q q q 9 7 9 e 9 e 9 9 f 8 9 9 0 s 7 9 9 s f W i i p : 0 2 5 5 n ^ } ( $.D G ' ' @.F G `  .` | # ` ",
"} {  .( / / E { Q Z ! W d R l n l l x g z h x y z h f z z k x g Z f Y k x / A S Z z h x l g p A ^ . @ * ;   X : : $ + 0 4 2 6 ` ",
"z h g h h z z z h y h h x g l k l k l x g g h z h h z k Y f h g h j l g Y f h j u h x h g u t r h j p M < j l x h j x q Y Y z h "
};
