/* XPM */
static char *wolf_wood1721451663[] = {
/* columns rows colors chars-per-pixel */
"63 64 95 2 ",
"   c #2F1500",
".  c #2F1A01",
"X  c #341600",
"o  c #351B01",
"O  c #391B01",
"+  c #371B08",
"@  c #3E1D0A",
"#  c #372000",
"$  c #3C2105",
"%  c #3F270D",
"&  c #3D2C0E",
"*  c #3E2F12",
"=  c #3E3213",
"-  c #3F3A1A",
";  c #43250D",
":  c #442B0D",
">  c #452C12",
",  c #4A2D13",
"<  c #482F1B",
"1  c #502C16",
"2  c #453415",
"3  c #4B3416",
"4  c #463917",
"5  c #4A3817",
"6  c #46361B",
"7  c #4B361B",
"8  c #45391C",
"9  c #4B391C",
"0  c #523416",
"q  c #543817",
"w  c #53361B",
"e  c #5A371C",
"r  c #543A1D",
"t  c #593A1D",
"y  c #492F20",
"u  c #463720",
"i  c #4C3623",
"p  c #433921",
"a  c #4D3C22",
"s  c #553721",
"d  c #5B3621",
"f  c #543C22",
"g  c #5A3C22",
"h  c #553F28",
"j  c #583F29",
"k  c #623A20",
"l  c #53401F",
"z  c #5B431F",
"x  c #4D4123",
"c  c #544124",
"v  c #5B4225",
"b  c #564329",
"n  c #5C442A",
"m  c #53482C",
"M  c #5D4B2D",
"N  c #5D4430",
"B  c #5E4C31",
"V  c #5F5436",
"C  c #614325",
"Z  c #624825",
"A  c #694827",
"S  c #63462B",
"D  c #6A472C",
"F  c #644A2D",
"G  c #6B4C2D",
"H  c #714D2E",
"J  c #62502F",
"K  c #6D512F",
"L  c #72512F",
"P  c #644D32",
"I  c #6B4D32",
"U  c #644938",
"Y  c #714E32",
"T  c #655235",
"R  c #6B5134",
"E  c #675139",
"W  c #6A5339",
"Q  c #715135",
"!  c #735C3E",
"~  c #7D5D3E",
"^  c #7D613E",
"/  c #775E43",
"(  c #7C5E43",
")  c #7C5F49",
"_  c #766142",
"`  c #7C6245",
"'  c #75654A",
"]  c #7C634A",
"[  c #7D6849",
"{  c #805E3E",
"}  c #825F42",
"|  c #816245",
" . c #816349",
".. c #81694C",
"X. c #856550",
/* pixels */
", , & 2 = 2 : , , ; = = * 2 , 1 > : 3 , 3 ; 2 : 3 > , > , , > , 7 % < : 3 > > , < > 6 * > > , : , : 2 : > 7 > : > 3 6 > y > > ",
"D P F B M P F I I F V M M B D D A F S U S G Z F P P F F F F J A P P S F P S I n B n N P I P F F F F F J F P F F v F U N U U n ",
"` ( [ _ ` _ | !  ...` ^ ' [ / / ` _ ] ) ` ` ` ` ] [ ] _ _ `  .] ] ] ] [ ` ` ` ] X.] [ / [ / ] [ _ ` ^ [ ` ] ( ` | ` ` ] ) ] ..",
"r w v r t t r ; 3 o : r r f f g w v f g w r t r f ; 9 o : w 7 g w % w o ; g 7 g f 7 f > f   ; w f 9 z 9 f g w r r q : g + ; r ",
"0 3 D D Y Y I c [ o r | v 3 5 2 7 F P < F 3 F 3 5 f ..o l ..I 7 R g ` O r ` v 3 7 3 n g ` o r | w R 3 3 I 3 I 0 G Y s ) @ s } ",
"5 q D Y Y I v 9 ' X e  .A 5 4 2 q ! I f F w F q i a ' X t ` R 7 R r ` X e | K z 0 f I r ..X t ` 3 T q > Q 7 I w G Q s X.X s } ",
"5 5 C I Y U d r _ $ t ( G v 2 5 q R P 3 P 3 F 3 7 h / o r ` F > P r _ $ t ~ G I v I W 7 ` o t _ 7 T 5 3 W 0 U 0 G I e } @ g | ",
"9 5 r F I Y r f [ . e  .K r 4 5 v R n i B q F 3 7 f ) + 0 ` F r R g ^ $ 0 | G Q G R G v ` o t ` 0 T 3 q W 7 I 0 K K g ( @ e ~ ",
"V 9 2 b P n < f ] o d } W n 2 r G I N 8 P 7 F 7 i a ] O r ( P 5 W w [ X q { K G R G R r ` # e ` 5 T 5 3 E 7 I 0 A K g ) X g ~ ",
"n 4 a 6 b a 9 f ) o g } I D 7 v I I n a n 7 F w 8 a ] O e ( S 5 T w  .o t | L K R G R r _ O t ` 5 T 7 5 E 5 R 3 Z K s } X g ^ ",
"T 9 9 8 x 6 8 f ] O e ( I F g G I I j 8 P 5 F 7 8 a ] o e | f 7 T q | O t { L A K G R r ( O t _ 7 T 5 6 E 5 R 7 z K q ] X r ^ ",
"F n 2 8 - 8 c r  .O d ( I R D Y Y I f 8 B 5 F 7 u f [ o e | 7 9 T g ` O q { L A I R R e _ O z ` 6 T 5 6 E 5 T q l K f [ + g ^ ",
"F R 2 9 4 x T f | O t | I L G L H I w 8 P 8 F 7 i a ] + k | 2 c R f ` O w { H K I Q I r ` o r ` 5 T 4 5 T 5 I 9 3 K g ] X s ^ ",
"G R r 2 4 l T r | O t | G L H G Y G 8 i B 8 S 7 8 a ) O e | 3 M E r ` o e | A K G R F r ` o r ` 5 U 5 8 U 7 W r 3 T s ] + f _ ",
"k Q K q 5 J W 9 ` O t } A A K G H D 6 8 M 8 P 7 u a ] + e  .5 V T f ` o t | z G Q G F r ` o t ` 8 T 7 5 W 7 R r 3 K s ] + g ` ",
"e G Q G l T c q ` O t { A K L H Y D 6 a M 8 P 7 u a ] O e | r R W w ] X t ` 0 A G F v r ] o t ` w U 7 7 E 5 R r 0 R s ] + f | ",
"0 F I R v T 5 z ` o t | Z Q H H H g 7 8 P a P 7 i 9 [ X e } v G I w | o r ` 7 f F b 6 g ` $ e ~ 7 W 9 8 E 7 R v 3 R s ] + a ( ",
"5 Z K Q F Q 9 r | o r ` v K G Y Y g 8 8 M 7 N i 5 9 [ o k  .G Q D s  .o t _ 5 r c i 5 f ] o e  .0 U 8 u U 7 R v 3 R s ] + f ( ",
"5 n F I R R r 5 ` O r ( z G L Y I f 5 9 B a B 7 8 r ` o e | H R n s ..o r _ 3 5 6 6 8 f ' X w  .7 E 8 8 T 7 R n 0 P s ) X g ( ",
"5 f F F T c 9 f ` O e ` r F Q G I g 6 9 P 9 N 7 9 f _ o e ~ G A f g ' X l ` 7 5 9 2 7 9 ` o r ` w P 8 i E q R F 0 S d ] . r | ",
"6 7 n I W f 5 f ) o r ` r Z Q G P w 6 a B 7 F 8 7 f ) O q ` K M 8 f ' X r _ r 5 9 7 r 9 [ # r ` 7 P i 8 U 9 R F 0 j j ) . c | ",
"5 6 j P P a 4 f ( O r ` 7 v Q R S 8 4 x B 8 P 7 6 f ` o t | R c 7 f ] o f ` c 5 3 7 n r ` O q ] w T 8 8 E w F K w d j ] . f | ",
"a 8 i n f 9 9 a [ O r ` 5 r I P b 5 8 c P 7 S 7 8 f ` O t ` M 4 u a ' # w ` F g 7 f S g _ # r [ 7 P 8 8 E 7 P R w w s ] o r ` ",
"a 8 8 f 6 8 a f ` O f ` 5 r F F b 6 u c P 8 P 7 5 f [ o t | c 2 9 a ' o w ` Q I n S I r ` O r ` w P i 8 E 7 F I w < h ] o r ( ",
"i a 6 7 9 6 a f ` O f ` 5 a n b 9 8 5 b b i P 5 6 a [ O e ` 4 4 8 f ] o w } Q I I D Q s ( o r ` 7 E u 6 U 7 v P r 0 s ) + b ~ ",
"B 8 a < 9 4 V 9 ] o g ` 7 5 r 9 8 9 8 n f w P 6 5 a ) O e ` 9 4 8 h ] o e ` Y I I I Q s ` O e } 0 T i 8 W 5 z K g 7 j ] + f ~ ",
"B 2 8 < 6 8 V 9 ` O g ` 5 8 8 6 9 4 9 P w 7 P 6 9 a ] O d  .4 8 i f ) o e } Y Y Y D Q w ( O e ( 7 I 8 8 E 7 c R C w s X.X f ( ",
"B f 7 f 4 x c l ] o e ' 8 8 8 8 6 6 a E 7 9 B 8 8 a ( O e ] 9 4 f f ] o e  .I Y Y I W g | O g ` 7 E i 8 W 7 r G F w s ] . f ( ",
"h a 8 3 5 9 9 9 ` O g ' 8 6 8 8 6 6 f W 7 w B 4 8 a ] + d } 6 6 n f ` O e | G R R I Y w ` O e ` 7 U a 8 U 7 r R P s s ] . 9 | ",
"f B r 7 6 B c c ` O s ` 8 6 8 p 8 5 n W < 7 B 6 8 9 } O j } 6 8 N w ] O t | A G R G R g } o g ] 0 P 8 6 W 7 q P P j s ] o f ` ",
"f T q 7 2 M 2 5  .O s ] a 8 - 8 9 7 N E w 7 B - - x ' O d } i a P f | O t { v G R F I f ] o g ` 7 T a 6 W 7 3 I I C d ) o f ` ",
"4 b f 5 M M 2 l ` O e ] 9 9 8 p 9 5 P P s 7 P 6 x p [ O d } i f P g ` O t | v F R P P w ` o e  .7 U u 2 W 7 3 F I P f ) $ r ( ",
"8 x P 8 P f 5 f ` O e | g 9 4 4 5 r E P 7 9 B 6 u a  .O e } q T P g ( O e | 0 P P W n r ] O w | w E 6 7 R 3 3 F R F s  .o r ` ",
"8 9 P j P s 7 9 ` o r | F a 4 5 5 f E N 0 f P 7 u h ) O k | f R P g ` o w | 0 g U P a i ' O w | 7 P 5 5 R q w n R P e  .o r | ",
"6 6 N B n i 5 f ' O r | G n 9 4 r v W n 8 f P 5 8 h ) O e { A R R r ) o w | 7 7 P c 6 f [ o r  .7 W 7 7 R r 0 c R P g  .o r ` ",
"4 - f n i 7 6 f _ o w | G M 9 5 z F W f 8 g F 8 u f ` O k { I R R f ` o e ..1 7 b i < h ] O e ` 7 U 5 6 R r 3 r R P e  .o r | ",
"8 8 8 f 7 8 7 f [ o t ..I P v 0 C I R 9 5 b F 7 i a ) o t { Q G F f ) o g ` 3 7 u 8 8 j ] o e ) w T 7 7 I f 5 r T I g  .X r ` ",
"8 8 7 8 8 a 7 a _ o t  .G Q R g A Y P 8 4 M M 5 7 a ' o q { Q H P r ) + g / 3 9 6 9 8 f ) o g ( w U 8 8 F v 3 r P I d } o r ` ",
"9 8 u 8 a 8 9 9 _ o t  .G Y Q G H Y P 8 9 V F 5 8 f ' o t { Y D C f ) o w ` 7 5 8 9 8 f ' o d  .7 U 9 5 F F 5 3 P T g ] # t ^ ",
"9 2 6 i 9 6 x x [ O q | D G Y Y Y I P 6 8 J F 7 i a [ X e } Y I g i [ o r ..c 6 8 u 6 a ] O e  .7 W 5 8 I F 3 5 F R g ` o r ` ",
"f 9 2 9 8 u x f [ o r | A I Y Y H Y f 9 6 V n 5 8 f ' . l ~ Q S w f X.X f ' v 2 9 6 9 f ] o r ( 7 U 8 6 P F 7 8 f W g ) o r ` ",
"P r 6 6 a a M f ` O r | C G Y I H H a 9 6 T v 5 i a ' o t ~ Y v 7 a ' X g ` F f 8 7 a a ` O r } w I 8 5 F I 7 5 c E s  .o r ( ",
"F r 9 4 u i B f ` o r ^ r G Q G Y I 7 a 9 T l 5 8 f ' o r ^ K g i a [ X r ` I v 5 a n r ` o r | 7 U 8 6 n P f 5 f P g  .o t } ",
"A c c 5 a b P f ` O t _ r Z R I Y D 7 i 9 R 7 5 9 a ' o q | F 9 i f [ o g ` R F g v F c ` o t | 7 W 9 6 v I f 5 a B f ) o r ` ",
"G Z r 9 f P v g } + g ` 7 v I R I n < a b T 3 5 u x ] o r ` n 5 7 i ] o g } Y G C F I r _ o t ` 7 E 9 6 f P f 4 9 b g ] o r | ",
"z K l 9 c T 7 s } O r ' 3 5 F W F f 6 a B T 5 5 u a ] o r ` r 8 9 a [ o g } Y I F I K r ` o t ` s U 8 6 r R c 4 9 f s ) o r | ",
"q A F n P P w g | O r ` 5 5 g n b 5 7 7 P P 7 5 u a ] X e ` 4 8 a a ' o e } I H Y I R r | o t ` s E 8 8 r R b 9 8 f g ] o r ..",
"t A F r P S s s ` O l ` 9 2 5 f a 6 i < E P 5 6 8 a ] O g ` 6 8 a f ] o e | Y Y Y I I w ` o t | 7 E 5 7 9 W M f 5 r g [ o e  .",
"q F R G R I 7 f ] + r ` q 5 9 6 p p u a I P 9 4 4 x _ o d ..2 8 b r ' # r } H H Y I P r _ o e ( w U 9 9 u U B f 5 q b ) o f } ",
"2 n G G I F 7 f ] o r ` r 5 8 p p p i f W b 4 8 4 x ' + d  .2 a P f ' o r ( G Y Y I F r _ o e  .< P 8 9 u V P b q 3 f / + f } ",
"4 c A R I S u x ' . f | C 7 p p - p i N R g 9 4 4 x ( X d | 9 c T f _ o r ` A G Y I v r [ o r  .7 T 8 8 6 N W n q 3 l ] + s } ",
"8 9 Z Q I n u a ' o r | G 7 p - 6 a 5 P I 7 4 4 8 a ) O t ` l F I r ` # l ^ C G Y I b r [ o e | w I 7 8 8 n W S r 3 t [ + j } ",
"4 4 v I D g u a ' o e } Y e 8 8 8 8 w I I 5 8 8 8 a ) @ e ( A T I w ] o r ` t K I P f 9 [ X r | 7 P 4 9 8 f E D v 0 r ) + s ` ",
"- - f I S f i x ' o e } Y C 9 8 8 5 g Q F 9 8 p a a ( @ r | K R I w [ O r _ t R I F r r ` o e ` 7 T 9 4 u f P I C 0 r ] + w ` ",
"p 8 a P n f 6 a ' # e } D I a 8 5 5 D Y f 9 2 m 8 f ) O e ` K L Q e  .o q [ 5 F T v 9 f ( o e ` 3 T l 2 u s n I A q r ] + s | ",
"- 8 8 b n 7 2 a ' o e } D Q 9 7 9 7 I G w 5 - V 7 h  .X e | H G Y w | O r | 3 c F 9 9 a / $ r ` 3 T l 2 a 8 g I H q r ] o r ^ ",
"8 = a a f 8 6 f ` # r  .C P I 5 9 r R I 3 5 - V i f ) O t ^ H G I j  .O w [ q 9 f a 5 9 ` O e | 9 J 5 8 8 i g S H q r ] X g ` ",
"x 6 p 6 i 8 9 g ` o w ` w S R F r P Q G w 7 8 B 7 s ] O t ` H L I s  .O w ` 9 8 a 8 7 i ` o e ` 5 J c 4 6 7 f C L C g ] X f ^ ",
"a 4 8 p p a f r | o r ` 7 g R W R R G v 5 2 2 T 7 g ] o v ` L Q U s ( O r ` 5 4 8 5 8 i ] o w ` 5 F M 8 6 7 7 g K F v ` + g ^ ",
"c a u u u u M c | O f ..3 9 P R R P P 3 7 q c W 8 7 [ O r ^ G G D s ( O r _ 5 9 9 8 i h ] o r ` 2 z T 9 i u i g F Z r ' o r | ",
"c 9 9 u i i T f ` X f ] 7 5 n F E P f 9 3 2 F F 7 w [ o r ( R G n f ( O g ] 8 5 i 8 7 s ] o r ` 5 r W x 8 2 6 7 l n a ] + s | ",
"F f 6 8 i a B r ` o a ] 8 < 9 f E f 8 6 5 5 F R r f ` o r ( R F f f ` O r ` 8 6 8 6 7 s ` O f ` q 5 J x u u i 8 3 r a ' + f { ",
"T b i < i f F c _ # s ] a 6 2 8 f 9 l 2 5 F R R l l ] X e ` F b 9 a ` o r ) 7 8 8 8 i f ] O f ` v r M c a p 8 5 5 5 a ] + g } ",
"l f N j N b c 9 _ # s ] j 9 4 9 i 8 4 8 c n t z v 9 ' o g ( v 3 5 9 ] o r [ f 9 8 a f g ] o f _ g 5 c m u 6 i 9 3 2 a '   g { "
};
