/* XPM */
static char *dfa4d2b926224d07a3232d8a159e7dd5RMiGLmlgYg3YJkvr[] = {
/* columns rows colors chars-per-pixel */
"64 64 209 2 ",
"   c #1B1C1B",
".  c #201F1D",
"X  c #1E211C",
"o  c #372C0E",
"O  c #21231E",
"+  c #2E2A19",
"@  c #362A14",
"#  c #3A2D15",
"$  c #342B1C",
"%  c #392D1B",
"&  c #342718",
"*  c #3E3116",
"=  c #3D321C",
"-  c #3B351D",
";  c #1D1E20",
":  c #151C22",
">  c #211F21",
",  c #1C2126",
"<  c #232324",
"1  c #2A2624",
"2  c #262924",
"3  c #2B2A25",
"4  c #252529",
"5  c #292629",
"6  c #27292B",
"7  c #2C2C2B",
"8  c #342D23",
"9  c #3A2E23",
"0  c #312D2C",
"q  c #2F312D",
"w  c #353124",
"e  c #3B3323",
"r  c #3E3823",
"t  c #33322C",
"y  c #3C342A",
"u  c #3E392C",
"i  c #2D2D31",
"p  c #232A30",
"a  c #312E31",
"s  c #2E3132",
"d  c #343434",
"f  c #3A3536",
"g  c #3C3935",
"h  c #353539",
"j  c #3A363B",
"k  c #36393C",
"l  c #3C3C3C",
"z  c #363A32",
"x  c #422D13",
"c  c #433416",
"v  c #4C3316",
"b  c #453916",
"n  c #44351C",
"m  c #4A361B",
"M  c #44391C",
"N  c #4A3A1D",
"B  c #523B1E",
"V  c #55391D",
"C  c #433622",
"Z  c #453923",
"A  c #4B3B23",
"S  c #42362B",
"D  c #443B2B",
"F  c #4B3D2B",
"G  c #493727",
"H  c #543D24",
"J  c #5A3F24",
"K  c #543E2A",
"L  c #593E2A",
"P  c #443D33",
"I  c #413E3C",
"U  c #4A3E30",
"Y  c #3E403E",
"T  c #59411F",
"R  c #56421D",
"E  c #4D4125",
"W  c #4C422C",
"Q  c #47402E",
"!  c #554225",
"~  c #5A4124",
"^  c #55422B",
"/  c #5A432A",
"(  c #4C4334",
")  c #43413D",
"_  c #4C453B",
"`  c #4E493C",
"'  c #474133",
"]  c #534433",
"[  c #5B4534",
"{  c #534835",
"}  c #5C4A34",
"|  c #53463A",
" . c #53493B",
".. c #5C4C3C",
"X. c #59473B",
"o. c #654A2D",
"O. c #654729",
"+. c #644B32",
"@. c #614E3E",
"#. c #6B4E30",
"$. c #665138",
"%. c #745435",
"&. c #76583E",
"*. c #3D3E41",
"=. c #423F42",
"-. c #3E4144",
";. c #444444",
":. c #4A4544",
">. c #464943",
",. c #4B4A44",
"<. c #464649",
"1. c #49474B",
"2. c #464949",
"3. c #4B4B4C",
"4. c #504642",
"5. c #534A42",
"6. c #5B4E43",
"7. c #524E4B",
"8. c #5D4E49",
"9. c #4E514C",
"0. c #5B5244",
"q. c #53514D",
"w. c #5B544B",
"e. c #5C594D",
"r. c #4C4D52",
"t. c #4D4550",
"y. c #524F52",
"u. c #524C58",
"i. c #4E5153",
"p. c #535354",
"a. c #5A5553",
"s. c #5B5A56",
"d. c #555559",
"f. c #59565A",
"g. c #565A5D",
"h. c #5B5B5B",
"j. c #565954",
"k. c #604E40",
"l. c #635244",
"z. c #60534A",
"x. c #645C4D",
"c. c #6C5A48",
"v. c #645D54",
"b. c #625E5B",
"n. c #675D54",
"m. c #705D4F",
"M. c #5F605B",
"N. c #6B6254",
"B. c #65625D",
"V. c #6B645C",
"C. c #6C685E",
"Z. c #656155",
"A. c #736A5D",
"S. c #726457",
"D. c #6B604E",
"F. c #5D5E61",
"G. c #615F62",
"H. c #685F62",
"J. c #5F6264",
"K. c #646363",
"L. c #6A6562",
"P. c #676964",
"I. c #6C6965",
"U. c #666569",
"Y. c #6A666A",
"T. c #65696B",
"R. c #6C6C6C",
"E. c #716764",
"W. c #726B64",
"Q. c #726E6C",
"!. c #7C6F66",
"~. c #74726D",
"^. c #7B726C",
"/. c #7C756A",
"(. c #716E73",
"). c #737373",
"_. c #7A7572",
"`. c #7D7A75",
"'. c #77767A",
"]. c #7D7C7B",
"[. c #777778",
"{. c #6F706E",
"}. c #847B6E",
"|. c #8C7C6D",
" X c #827C73",
".X c #827D7B",
"XX c #847B76",
"oX c #7F807A",
"OX c #83817C",
"+X c #898277",
"@X c #88816F",
"#X c #7D7E81",
"$X c #837E81",
"%X c #7D8084",
"&X c #858382",
"*X c #8D8B86",
"=X c #8C8B8B",
"-X c #868889",
";X c #908D8C",
":X c #938B84",
">X c #8E908F",
",X c #93908B",
"<X c #8C8E91",
"1X c #939393",
"2X c #9B9B9B",
"3X c #999995",
"4X c #8F9193",
"5X c #A29E9B",
"6X c #ACABA9",
/* pixels */
"].]. Xy W ^ ! $.~ ~ J J L ^ ^ ! R R ~ ^ L [ K x m ~ ~ ! ^ F F P 7.L..XXX_.Q.~.R.7 7 7 2 q 7 3 :.K.).p.T.p.h.<.p.3.3.d.h.h.K.).].",
"[.R.~.e.C A ^ $.~ ~ J J ^ ^ ^ ! ~ ~ J H L / L c N B ! ! A Z e w.L.XX_.^. X^..X.X:.7 7 7 7 2 3.K.).3.R.3.3.<.p.p.K.K.K.P.P.K.P.R.",
"[.R.I.B.0.F A +.~ ~ ~ / ~ ~ ! H H H ^ ^ / ^ N x c ~ c ^ S  .w.V.V.` P ( _ ( _ W.B.:.i i 4 1.R.(.p.T.p.3.s.h.T.T.K.K.K.P.P.K.K.K.",
"y.[..XQ.V.0.C } ! ~ ~ ~ ~ ~ ~ ~ H L L H ^ ^ N x N H n Z ..V./._ W W Z Z % C e w L.B.3.<.r.T.(.y.U.K.T.K.K.K.h.p.p.3.3.3.3.3.3.3.",
"3.d.).Q.XXV.S ..^ ~ ~ ~ ~ ~ ~ / J L H H ^ ! C = S e z.V.}.}. .W M N c n n Z $ D _ &Xb.G.G.(.r.U.K.h.h.h.h.B.h.h.h.h.h.h.h.h.h.h.",
"3.1.f.(.).Q.w { ^ ! ~ ~ ~ J ~ ~ J J / / A % e D w.V. X XN.( W A b b E b * M % e 9 b.=X6X(.d.Y.f.<.3.p.3.3.3.3.<.3.3.3.3.3.3.3.3.",
"3.7.3.d.(..Xa.w F ! ! ~ ~ ~ ~ ~ / ~ ^ A % w _ q.K.`. XP  .Z n b b b c A * # F $ 8 V.6X`.q.I.q.3.3.p.3.3.3.<.3.p.3.3.3.3.3.3.3.3.",
"3.7.3.3.d.(.&Xw.C A ! ! ~ ! ^ ^ ^ H A C D w.L.B.].L._  .D n c N N c N n n = S & 8 V.3X_.I.9.9.,.3.3.3.3.<.3.3.3.3.3.3.3.3.3.3.3.",
"7.3.3.3.<.d..XV.0.Z A ^ A / ] K F % 9 0.V.v.+X`.` ( F C C C C Z A # A Z n # D $ 3 B.3XP.q.,.3.,.3.3.3.3.3.3.3.3.3.3.3.3.3.3.3.3.",
",.7.3.3.r.<.]..XV.0.S W F F G 9 9 x.v.XX X+XN.W W E A M Z Z Z Z Z # Z n = $ e $ w B.*XK.j.,.3.,.3.3.3.3.3.3.3.3.3.3.3.3.3.3.3.3.",
"7.:.q.3.<.3.].~..Xv.w.$ 9 9 y 4.p.K.`. Xn. .F A N N m b M Z C C Z * Z n Z % e w g B.=XJ.g.3.;.p.3.3.3.3.3.3.3.3.3.3.3.3.3.3.3.3.",
",.,.3.3.3.2.).R.]..Xb.v.a.7.a.7.P.).OXC.( ] F A m m v b M Z C r n # n n C @ $ 8 q.{.].K.F.r.r.2.3.3.3.3.3.3.3.3.3.3.3.3.3.3.3.3.",
"y.7.3.<.3.d ).R.L.q.p.a.L.I.3X5X*X~.V.( ( F n A A A N n M M M M A o M Z Z % 8 8 a.R.=XU.p.r.3.r.3.3.3.3.3.3.3.3.3.3.3.3.3.3.3.3.",
"3.3.3.<.k K.].P.p.h.y.p.1.I.1X&X:Xv. .Z A F A A A A A C n M M M M o n Z Z $ $ 9 B.).].U.p.r.p.<.3.3.3.3.3.3.3.3.3.3.3.<.<.3.3.3.",
"t.1.y.h K.OXR.p.y.p.d.f.3.<.).,X X] F n ^ c A * Z Z Z S M b b b M # A Z D $ 8 P L.`.&XP.p.3.3.3.3.3.3.3.3.3.3.3.3.3.3.<.3.3.3.3.",
"u.<.j K.].].K.d.d.d.p.d.3.3.2.B.z.] A ^ N N M M Z Z C Z M b b b * @ Z C D $ 9 4.W..X].K.d.3.3.3.3.3.3.3.3.3.3.3.3.3.<.<.3.3.3.:.",
"t.j K..XOXQ.K.d.d.d.d.p.Y 3.p.,.V.] Z ^ b N A M Z M - M M M M A = @ A C = % % 0. X}. Xq.3.3.r.3.r.r.r.r.3.3.3.3.3.3.3.r.3.<.3.j ",
"f H.V.4._ B.Q.f.F.r.i.9.) p.p.L.V.( C E c b M M Z M M M N M n n @ = n n C # @ x. ._ V.a.3.3.3.r.r.r.3.<.3.3.3.3.3.2.i.i.3.3.l =.",
"V.E._ D P _ E.K.p.d.h.k ) 7.h.y.E.| W Z M b c M M M M M b M A A # @ Z C @ n m...{ U 0.E.f 7.,.3.3.<.3.9.3.3.q.:.3.r.r.<.*.k l l ",
"V.| F ( r _ _ `.:.p.;.l <.d.p.p.V.V.( Z M c n M n M M b M n n = % e % $ % N. .{ (  .9 A.V.I :.7.3.3.3.3.:.3.3.3.3.;.d f d l I P.",
"] A { M n C $ I.~.<.;.j.l f.f.f.,.XX( W A M M c M M M b M n = % 8 3 0 ,.V.XXu u y D g E.~.R.g l I :.:.:.7.;.l I f h h ;.f p.B.L.",
"A ^ o A M Z e ` .XB.:.q.;.y.p.d.;._.v.e = n A A A n n M Z n % $ 7 7 3.K.`.]..XB.I.B.B.*X=XK.P.) g t t f t d j d *.l <.f p.h.OX_ ",
"! N b b n Z e 8 V.~.;.p.;.p.f.d.l h. X .C Z n C C C Z A C % & 8 <.F.K.p.i.h.i.q.3.p.].>X3X2X{.P.p.g l :.l I 1.*.*.;.d p.I. X_ ' ",
"b b b N A Z % D v.OXK.<.;.p.f.1.*.K.`.C.$ C D C D C C r % $ P w.h.U.d.3.-.k Y ;.;.;.p.'.2X1X=X].P.q.l l ;.=.*.;.l f h.B. X_ F ( ",
"M M c n Z C = D ` _.].B.;.p.3.2.*.K._.+X( e 9 D u u - e & w.v..XL.a.:.I ) f k I ;.l ;.p.].&X;X).'.T.p.k f j *.h l p.K. XV.D { Z ",
"b M N n Z Z = r 8 I.`.).d 3.3.3.d ).W. XN.+ 9 8 $ w w + P V.&XK.a.:.I I ) f I g ) ) f ) ).$XQ.d.d.#XJ.d.k d l h d.G..XB._ { n N ",
"M A A Z C Z % r e e.I.].K.k g d _.`.XX}.@X( $ 9 9 8 u ,.s.].q.d.,.;.,.3.I d I f l l l <.K.).K.3.r.i.%XJ.h.p.p.h.K.OXB.` F n A m ",
"M A A Z C Z @ C w ` `.=XR.T.h.~..X7.5. ...A. ._ ,.v.s.OXoXq.3.3.=.=.3.3.*.f <.-.f ;.s d.P.).r.3.;.2.r.#X).].=X=X`.Q.4.P C n N b ",
"M M Z Z Z C @ D e _ OXR.1XR.~.L.5...] ^ ] F V.n.L.I.OXI.9.p.y.l *.;.-.-.-.k -.*.h *.s p.Y.F.3.3.3.3.,.b.OX*X,X_.~.C.D C F N c N ",
"M M M Z A = # C e _ .XR.R.).~.,.] } ^ ^ ^ ] F +X.XR.Q.q.s.3.;.*.-.<.-.*.-.h *.*.*.f <.K.R.j.7.,.:.) 4.a.V.W.W.I.v.0.Q F n E A H ",
"b c M n A # = = $ e.Q.;X'.(.Q.V.] / J ! ^ ^ S  XI.OXp.q.d.l *.*.l ;.-.-.;.d ;.;.d g q._.XXXXV.V.V.N.V.n.V.XX!.x.0.v.Q S n A A A ",
"m b N n A @ C = e w.].].K.y.L. X|.L / ^ A D S }..Xq.q.3.p.l <.;.=.;.l ) ) t ) l l 0 V.6.l.@.l.@.k.l...l.6.Z ] 0.x.N.F Z Z E A A ",
"N b c A % % u y _ I.].P.p.h.p.B. X XD P P P V.`.q.p.3.1.p.1.=.;.*.l ) I ' 8 l ;.h p.^.6.@.+.J / ~ ^ ^ ^ ^ m / K ] }.D Z A c N m ",
"c A n C % $ u ,.L.K.h.p.h.p.q.p.b.OXOXB.q.7.`.L.d.:.l :.d.<.l ;.<.;.I P P 3 ;.l i j.n.X.L o.O.~ J ~ ! ! / v ~ H F S.F G c ! c b ",
"n N n C e w ' V.K.].p.h.p.d.d.p.s.b.`.;X].*X`.d.<.) l :.p.3.;.*.*.*.l ) g 7 <.s i b.z.m.^ o.J ~ ~ ~ ! ^ ~ v ~ ^ F x.F C n c N M ",
"M C C = $ _ V.B.R.I.p.h.p.d.d.p.q.a.L.`.=X*X=Xp.l ;.;.<.p.3.;.-.-.-.;.) d 7 l d P.^.| c.J +.~ ~ ~ J ! / ~ v ~ / F A.e D n n n Z ",
"Z r F & _ E.b.`.OX3.K.d.d.p.d.d.p.q.p.B.,X3X2Xp.;.;.l <.s.3.;.;.;.-.;.Y d d k 2.Q.^.l.c.H +.^ H ~ ~ ! / ~ v J / F v. .e Z Z Z C ",
"D D w ` V.B.Q..XK.p.h.p.p.p.q.p.p.s.q.p.h.3X3XP.l ;.) <.h.3.<.;.*.*.;.Y s s s j..Xn.} $./ +./ ^ ~ ~ ! / H V ^ / F V.V.` % Z S D ",
"u w ` B.V.I.OXK.p.K.p.p.P.p.d.d.d.p.3.d.d.P.=X).l l ;.3.p.3.3.;.-.;.;.;.s 7 d h. Xl.+.&.J ~ H / ~ ~ ! ~ J H ^ ^ D V. XZ.( e D u ",
"t ,.B.V.]..X(.K.p.d.d.p.p.d.d.d.d.p.h.;.p.d.1X=Xd.k f 3.p.:.3.;.*.;.l ;.s d <.~.!.} ~ %.J o./ H ~ ~ ! ! J J ^ ^ D B.`.`.A._ w w ",
":.B.B.;X-X&XK.d.d.d.d.p.h.d.p.d.p.p.p.*.d.p.K.).).t f k p.<.3.;.l l l ;.7 d d.`.N.[ O.%.#.J ^ / ~ J / H J J H ^ u V.`.OX XV.) ,.",
"L.B.2X3X=XK.d.p.p.d.d.d.h.d.d.d.p.i.p.;.<.p.d.F.P.3.7 k 7 ;.3.l <.<.<.l i 7 p.XXl.$.V %.O.O.^ H ~ ~ ^ H H ^ ^ ] D V.7 2 P q.L.M.",
"K.&X1X1XR.d.h.p.d.h.h.p.p.3.d.h.d.i.d.3.*.d.p.d.K.d.<.7 f f 3.<.k ) ;.d d 1.K.E.6.K ~ %.%.J ^ ^ ~ ~ H ^ ^ ~ ^ ^ S B.t 3 8 0 k j.",
"2 <.1X=XP.d.3.h.h.h.h.p.d.d.d.p.d.p.d.3.*.p.p.d.p.<.p.P.p.k 7 3.;.l ) f 0 p._.`.6.^ J o.%.V / ^ / ^ H ^ ~ H ^ K u B.3 7 0 5   7 ",
"i < ;.&Xp.h.p.d.h.h.h.s.p.p.p.d.p.p.p.<.;.<.p.d.d.3.Y.K.7.7 f d k l l g d K.]..XP ( / ~ #.~ J J J ^ H ^ J J ^ ^ S L.7 3 0 0 < 7 ",
"7 2 <.).p.p.p.d.h.h.p.p.d.h.d.p.p.9.p.;.;.;.d.d.3.d b.>X=Xd.7 f s <.) t :.).).T.B.F ^ ^ o.O.V / J ^ ^ L J J ~ ^ D B.7 7 0 3 ; 7 ",
"< <.U.T.p.d.p.d.p.d.p.s.p.p.p.p.p.3.d.;.) <.d.3.f 3.&X&X=X&Xp.d d k d 0 s.`.).).].Z.D } ~ o.O./ J ~ ^ H H ~ J F u I.7 7 7   h d ",
"3.P.K.K.<.p.d.s.h.d.q.p.q.d.p.d.p.<.d.;.d <.3.f 3.q.`.,.g :.`.p.s 7 f 7 Q..XK.k f L.N.Z A / / ^ ^ ! ! H H ^ A Z ,.B.7 7 0 < 7 6 ",
"T.R.(.(.U.<.p.J.h.p.p.q.7.h.r.d.d.;.f.<.d I f 3.p.L. .u D e _ XXI.p.p.T.[.U.j i 7 f V.!.x.F } ^ ^ / / J ^ H D _ I.K.  <   2 : , ",
"_.`.Q.R.].U.<.<.d.q.s.3.j.d.d.d.f.<.d.l f k :.j.L.` D F r C S + :.].].].K.h i i 7 f 0 L.W.V.D F ^ ^ ! / A Z _ I.R.#X-X3.<.3.r.<.",
" XE.+X,X:X*XI.:.:.j.y.d.p.d.p.p.;.<.d.;.h 3.y.L._ W D Z = = S D u ) `.`.:.l 7 i i 7 0 d I.Q.W.6.F ^ F n G  .B.p.d.r.p.p.3.P.#X].",
"|.0.|  .0.:X:XV.:.f f.f.p.p.p.p.,.>.3.d 1.3.Q.( W A M M n = C e D w `.C.g 2 7 i 4 6 7 a d P.$XQ.6.( S | _ V.b.p.p.g.p.p.h.;.P.].",
"} @.^ ] ...... XE.:.I ;.p.q.j.) ,.>.f 1.d.Y.I ( M * b M n # Z % D $ +Xy t 1 7 7 s 6 4 i i *.F..X~.q.,.,.B.OXs.p.p.3.g.p.d.;.V. X",
"^ H H ^ H ^ @.l.8.L.,.f 3.q.) 9.z z 3.K.:.4.D Z N b c c A c n = $ ,.V.y t 2 7   7 7 6 7 i 7 k P.].R.P.U.>Xh.3.3.d.p.i.d.3.7.v.}.",
"/ H ~ ~ ~ ! ^ F 6.S E.:.g ,.>.t :.q.I.,.P | W n b c A C A # = = 7.B.g 2 3 7 7 t   < 7 2 7 6 7 f K.].R.<X4Xd.3.:.p.d.p.d.3.5.S...",
"~ B / ~ ~ J ^ H ] S ( _ _ g g ;.q.B.` ( ] A c N N c c % G % = e a.j j 0 7 7 t 2 2 O O 2 3 q 7 7 d R.'.-XT.i.d.j.p.d.p.3.3._ S...",
"~ ~ B J / ^ ~ H H n ] { D :.:.7.b.5.F Z ^ A c N N n n = C e w _ K.j i 7 7 6 2 7 7 2 X X 1 7 7 3 0 f P.].i.d.p.a.p.d.p.3.,.6...[ ",
"H ~ J J H H ~ B / c A C F a.y.Q.4.F Z A ^ N m c c A M = C w ,.K.r.h i 7 7 7 2 7 7 3 O X O 2 7 0 3 0 f K.#Xd.p.p.p.p.3.3._ W.X.^ ",
"! ^ ^ H L ^ H m N c n r w.V.K.:.P C M A H m H N N n M - r w p.U.h h 7 7 7 7 7 3 7 7 2 .   < 5 0 3 0 7 f R.G.j.p.7.7.3.,.w.| ^ ^ ",
"/ ! ^ ^ ^ ^ A N M * C 0.XX_.$X,.S Z A ! ! N A n N n M r $ _ U.h 7 k 7 7 7 7 7 7 7 7 2 > > < 4 5 d 2 7 7 f R.3.3.3.,.,._ z.../ / ",
"~ ~ / ^ H ! A Z = = 0. X`.].#Xa.D Z M A ^ n n c Z n r % 5.L.<.j 7 k 7 7 7 7 7 7 7 7 7 < < < 4 < 2 0 0 1 7   K.p.3.q.q.5...^ L / ",
"J ~ ~ ! ^ ^ Z % w w. Xq.) h.#Xb.( C n A ^ N n N Z = F 9 7.L.f 7 7 k 7 7 7 7 7 7 7 7 7 4 < ; < 6   7 7 7 0 > d.J.p.s.` S.../ H ^ ",
"~ ~ ~ J / ^ = y w.].3.3.l ;.i.OX0.C Z W E N b b Z D y :.L.f 0 3 7 f 7 7 7 7 5 7 7 7 7 2 ,   < 7 4 , 7 5 d   d.%X3.:.N...^ H ^ ^ ",
"~ T J ~ H c e w.`.#X;.*.*.l -.q.V.C Z F M c b b Z e 4.a.Y.1 0 8 0 j 7 0 5 a 7 7 7 7 7 7 O   X 6 p : < 5 0 ; g.'.#XB.A...^ H / H "
};
